<?xml version="1.0" standalone="no"?><!DOCTYPE svg PUBLIC "-//W3C//DTD SVG 1.1//EN" "http://www.w3.org/Graphics/SVG/1.1/DTD/svg11.dtd"><svg t="1658992619636" class="icon" viewBox="0 0 1024 1024" version="1.1" xmlns="http://www.w3.org/2000/svg" p-id="3693" xmlns:xlink="http://www.w3.org/1999/xlink" width="200" height="200"><defs><style type="text/css">@font-face { font-family: feedback-iconfont; src: url("//at.alicdn.com/t/font_1031158_u69w8yhxdu.woff2?t=1630033759944") format("woff2"), url("//at.alicdn.com/t/font_1031158_u69w8yhxdu.woff?t=1630033759944") format("woff"), url("//at.alicdn.com/t/font_1031158_u69w8yhxdu.ttf?t=1630033759944") format("truetype"); }
</style></defs><path d="M512.5 394.1c0.1 6.7 1.6 11.7 4.2 15 2.6 3.3 7.6 5.3 14.9 5.9v-37.1c-9.7-1.6-16.7-4.6-21.1-8.8-4.3-4.3-6.5-9.9-6.5-16.8 0-7.4 2.2-13.3 6.8-17.8s11.5-7 20.7-7.8V315h8.3v11.7c9.1 0.9 15.7 3.6 19.7 7.9 4.1 4.3 6.1 10 6.1 17.2h-10c-0.8-5.3-2.2-9.2-4.3-11.7-2.2-2.5-6.1-4.1-11.5-4.5v33.6c3 0.8 5.5 1.4 7.5 2 1.8 0.5 3.4 1.1 4.7 1.6 1.2 0.5 2.1 0.9 3 1.4 0.8 0.5 1.7 1.1 2.9 1.7 3.7 2.5 6.5 5.4 8.2 8.7s2.5 7.5 2.5 12.5c0 8.2-2.4 14.6-7 19.1-4.7 4.5-11.8 7.1-21.7 7.9v13.3h-8.4v-13.3c-10.7-0.8-18.3-3.7-22.8-8.8-4.6-5-6.8-12.1-6.7-21.2h10.5z m5.5-32.4c2.5 2.6 7 4.6 13.6 5.8v-32.1c-5.9 0.3-10.4 1.8-13.2 4.7s-4.2 6.6-4.2 11.2c0 4.4 1.3 7.8 3.8 10.4z m36.2 24.5c-2.6-3-7.4-5.3-14.3-6.8v35.8c5.8-0.1 10.3-1.8 13.4-5s4.7-7.2 4.7-12c0.1-5-1.3-9-3.8-12z" fill="#E3DE19" p-id="3694"></path><path d="M535.3 498.2c-67.5 0-122.4-54.9-122.4-122.4s54.9-122.4 122.4-122.4 122.4 54.9 122.4 122.4-54.9 122.4-122.4 122.4z m0-231.5C475 266.7 426 315.7 426 376s49 109.3 109.3 109.3 109.3-49 109.3-109.3-49-109.3-109.3-109.3z" fill="#E3DE19" p-id="3695"></path><path d="M661.9 448.7c-3.7 0-6.6-2.9-6.6-6.6 0-3.7 2.9-6.6 6.6-6.6 60.3 0 109.3-49 109.3-109.3s-49-109.3-109.3-109.3c-27 0-52.8 9.9-72.9 27.9-2.8 2.4-6.8 2.2-9.3-0.5-2.5-2.8-2.2-6.8 0.5-9.3 22.5-20.1 51.5-31.2 81.6-31.2 67.5 0 122.4 54.9 122.4 122.4s-54.7 122.5-122.3 122.5zM832.9 627.1c-41.1 19.1-73.5 30.8-123.7 44-64.4 16.7-133.8 10.9-133.8 10.9 1.7-0.1 32.3-8.7 42.8-25.9 7.8-12.5 10.3-35.4-42.8-35.1H408.9l-41.6-56.1h-86.9v-64.4c0-0.7-0.7-1.3-1.3-1.3h-106c-0.7 0-1.3 0.7-1.3 1.3v287c0 0.7 0.7 1.3 1.3 1.3h106c0.7 0 1.3-0.7 1.3-1.3v-52.9s182 81.6 199 85.7c17 4.1 81.5 3.6 92 0s159.5-56.7 248.3-114.7 61.9-101.1 13.2-78.5z" fill="#E3DE19" p-id="3696"></path></svg>