<?xml version="1.0" standalone="no"?><!DOCTYPE svg PUBLIC "-//W3C//DTD SVG 1.1//EN" "http://www.w3.org/Graphics/SVG/1.1/DTD/svg11.dtd"><svg t="1659874217622" class="icon" viewBox="0 0 1024 1024" version="1.1" xmlns="http://www.w3.org/2000/svg" p-id="3118" xmlns:xlink="http://www.w3.org/1999/xlink" width="200" height="200"><defs><style type="text/css">@font-face { font-family: feedback-iconfont; src: url("//at.alicdn.com/t/font_1031158_u69w8yhxdu.woff2?t=1630033759944") format("woff2"), url("//at.alicdn.com/t/font_1031158_u69w8yhxdu.woff?t=1630033759944") format("woff"), url("//at.alicdn.com/t/font_1031158_u69w8yhxdu.ttf?t=1630033759944") format("truetype"); }
</style></defs><path d="M810.1 362.5c0-164.9-133.7-298.6-298.6-298.6-164.9 0-298.6 133.6-298.6 298.6 0 54.4 14.8 105.3 40.2 149.3h-0.3l258.6 447.8L770 511.8h-0.3c25.6-44 40.4-94.9 40.4-149.3zM705.4 549L511.5 884.9 317.6 549h0.3l-32.4-56c-23-39.8-35.2-85-35.2-130.6 0-144.1 117.2-261.3 261.2-261.3s261.2 117.2 261.2 261.3c0 45.6-12.2 90.8-35.2 130.6l-32.1 56z" fill="#4a4cc5" p-id="3119"></path><path d="M511.5 157.2c-103 0-186.6 83.6-186.6 186.6s83.6 186.6 186.6 186.6 186.6-83.6 186.6-186.6c0-103.1-83.6-186.6-186.6-186.6z m0 335.9c-82.3 0-149.3-66.9-149.3-149.3 0-82.3 66.9-149.3 149.3-149.3 82.3 0 149.3 67 149.3 149.3 0 82.3-67 149.3-149.3 149.3z" fill="#4a4cc5" p-id="3120"></path></svg>